<svg width="1033" height="400" viewBox="0 0 1033 400" fill="none" xmlns="http://www.w3.org/2000/svg">
<g clip-path="url(#clip0_6106_1579)">
<path d="M113.5 143H144.65L155.84 225.74L159.44 225.5L172.5 143H197.5L210.03 222.14L213.65 221.9L225.5 112H256.5L230.57 256.05L198.25 258.2L186.57 184.5H183.43L171.47 259.98L141 262L113.5 143Z" fill="#FF0558"/>
<path d="M266.66 143L246.57 256H270.77L273.49 237.74H296.4L299.07 256H323.5L303.18 143H266.66ZM276.55 217.19L283.55 170.19H286.55L293.43 217.19H276.55Z" fill="#FF0558"/>
<path d="M593.18 143H556.66L536.57 256H560.771L563.49 237.74H586.4L589.07 256H613.5L593.18 143ZM566.55 217.19L573.55 170.19H576.55L583.43 217.19H566.55Z" fill="#FF0558"/>
<path d="M418.5 141.86C396.23 141.86 385.56 153.96 385.56 172.68V226.32C385.56 245.04 396.23 257.14 418.5 257.14C440.77 257.14 451.44 245.04 451.44 226.32V206.92H426.68V228.61C426.68 234.54 424.41 236.61 418.5 236.61C412.59 236.61 410.32 234.55 410.32 228.61V170.39C410.32 164.46 412.59 162.39 418.5 162.39C424.41 162.39 426.68 164.45 426.68 170.39V183.18H451.44V172.68C451.44 154 440.77 141.86 418.5 141.86Z" fill="#FF0558"/>
<path d="M316.8 166.51H337.2V256H361.8V166.51H379.8V143H316.8V166.51Z" fill="#FF0558"/>
<path d="M504.73 187.72H487.11V143H462.35V256H487.11V210.72H504.73V256H529.49V143H504.73V187.72Z" fill="#FF0558"/>
<path d="M644.5 143H671.5C682.87 143 690.071 146.2 693.271 153.41C695.031 157.25 695.35 160.61 695.35 173.09C695.35 185.57 695.031 188.94 693.271 192.94C690.071 199.94 682.87 203.18 671.5 203.18H659.23V256H644.5V143ZM667.87 189.9C673.95 189.9 677.79 188.78 679.56 184.78C680.35 183.02 680.68 181.41 680.68 172.78C680.68 163.78 680.35 162.54 679.56 160.62C677.79 156.78 673.95 155.62 667.87 155.62H659.23V189.87L667.87 189.9Z" fill="black"/>
<path d="M706.6 143H748.05V156.45H721.331V189.26H747.57V202.86H721.331V242.55H748.05V256H706.6V143Z" fill="black"/>
<path d="M760.06 143H785.18C799.43 143 808.71 148.44 813.35 158.53C815.91 164.45 816.711 169.89 816.711 199.53C816.711 229.17 815.91 234.53 813.35 240.53C808.71 250.56 799.43 256 785.18 256H760.06V143ZM783.901 242.55C792.231 242.55 797.03 239.55 799.43 234.07C801.19 230.23 801.67 226.87 801.67 199.66C801.67 172.13 801.19 168.77 799.43 164.93C797.03 159.33 792.231 156.45 783.901 156.45H774.781V242.55H783.901Z" fill="black"/>
<path d="M830.641 143H845.36V256H830.641V143Z" fill="black"/>
<path d="M900.26 233.27H872.891L869.05 256H854.32L875.32 143H897.891L918.69 256H904.1L900.26 233.27ZM898.021 220.27L886.651 154.81H886.331L875.13 220.27H898.021Z" fill="black"/>
</g>
<defs>
<clipPath id="clip0_6106_1579">
<rect width="805.19" height="150" fill="white" transform="translate(113.5 112)"/>
</clipPath>
</defs>
</svg>
